<svg xmlns="http://www.w3.org/2000/svg" viewBox="0 0 32 32" role="img" aria-label="Studio Spot">
  <title>Studio Spot</title>
  <!-- Pin de ubicación lavanda con destello central (paleta pastel) -->
  <path fill="#7a6fa6" d="M16 2c-6.1 0-11 4.7-11 10.6 0 7.2 9.4 15.3 10.4 16.2.4.3.9.3 1.3 0C17.6 27.9 27 19.8 27 12.6 27 6.7 22.1 2 16 2Z"/>
  <circle cx="16" cy="12.4" r="6" fill="#faeede"/>
  <!-- Destello -->
  <path fill="#7a6fa6" d="M16 7.6c.45 3.3 1.05 3.9 4.35 4.35-3.3.45-3.9 1.05-4.35 4.35-.45-3.3-1.05-3.9-4.35-4.35C14.95 11.5 15.55 10.9 16 7.6Z"/>
</svg>
