<svg xmlns="http://www.w3.org/2000/svg" viewBox="0 0 32 32" role="img" aria-label="Studio Spot">
  <title>Studio Spot</title>
  <rect width="32" height="32" rx="7" fill="#e7e3f2"/>
  <path fill="#7a6fa6" d="M16 4c-5 0-9 3.85-9 8.7 0 5.9 7.7 12.5 8.5 13.25.3.27.7.27 1 0C17.3 25.2 25 18.6 25 12.7 25 7.85 21 4 16 4Z"/>
  <circle cx="16" cy="12.5" r="4.9" fill="#faeede"/>
  <path fill="#7a6fa6" d="M16 8.9c.37 2.7.86 3.2 3.56 3.6-2.7.37-3.19.86-3.56 3.56-.37-2.7-.86-3.19-3.56-3.56C15.14 12.1 15.63 11.6 16 8.9Z"/>
</svg>
